<svg xmlns="http://www.w3.org/2000/svg" xmlns:xlink="http://www.w3.org/1999/xlink" width="500" zoomAndPan="magnify" viewBox="0 0 375 374.999991" height="500" preserveAspectRatio="xMidYMid meet" version="1.0"><defs><g/></defs><rect x="-37.5" width="450" fill="#ffffff" y="-37.499999" height="449.999989" fill-opacity="1"/><rect x="-37.5" width="450" fill="#ffffff" y="-37.499999" height="449.999989" fill-opacity="1"/><rect x="-37.5" width="450" fill="#ffffff" y="-37.499999" height="449.999989" fill-opacity="1"/><g fill="#000000" fill-opacity="1"><g transform="translate(45.417467, 169.712018)"><g><path d="M 14.765625 -23.144531 C 13.582031 -23.28125 12.671875 -23.316406 11.285156 -23.316406 L 2.871094 -23.316406 L 2.871094 0 L 8.175781 0 L 8.175781 -8.515625 L 11.285156 -8.515625 C 12.671875 -8.515625 13.582031 -8.550781 14.765625 -8.683594 C 18.144531 -9.089844 21.117188 -11.488281 21.117188 -15.914062 C 21.117188 -20.339844 18.246094 -22.742188 14.765625 -23.144531 Z M 12.941406 -12.738281 C 12.46875 -12.671875 11.828125 -12.671875 11.082031 -12.671875 L 8.175781 -12.671875 L 8.175781 -19.160156 L 11.082031 -19.160156 C 11.828125 -19.160156 12.46875 -19.160156 12.941406 -19.089844 C 14.53125 -18.886719 15.578125 -17.910156 15.578125 -15.914062 C 15.578125 -13.921875 14.53125 -12.941406 12.941406 -12.738281 Z M 12.941406 -12.738281 "/></g></g></g><g fill="#000000" fill-opacity="1"><g transform="translate(66.806114, 169.712018)"><g><path d="M 23.652344 -23.316406 L 18.382812 -23.316406 L 18.382812 -13.515625 L 8.175781 -13.515625 L 8.175781 -23.316406 L 2.871094 -23.316406 L 2.871094 0 L 8.175781 0 L 8.175781 -9.359375 L 18.382812 -9.359375 L 18.382812 0 L 23.652344 0 Z M 23.652344 -23.316406 "/></g></g></g><g fill="#000000" fill-opacity="1"><g transform="translate(92.486006, 169.712018)"><g><path d="M 13.480469 -23.789062 C 6.25 -23.789062 1.757812 -19.058594 1.757812 -11.65625 C 1.757812 -4.292969 6.25 0.472656 13.480469 0.472656 C 20.679688 0.472656 25.171875 -4.292969 25.171875 -11.65625 C 25.171875 -19.058594 20.679688 -23.789062 13.480469 -23.789062 Z M 13.480469 -3.445312 C 9.597656 -3.445312 7.230469 -6.453125 7.230469 -11.65625 C 7.230469 -16.894531 9.597656 -19.867188 13.480469 -19.867188 C 17.335938 -19.867188 19.699219 -16.894531 19.699219 -11.65625 C 19.699219 -6.453125 17.335938 -3.445312 13.480469 -3.445312 Z M 13.480469 -3.445312 "/></g></g></g><g fill="#000000" fill-opacity="1"><g transform="translate(118.672732, 169.712018)"><g><path d="M 24.160156 0 L 24.160156 -23.316406 L 18.886719 -23.316406 L 18.886719 -12.941406 C 18.886719 -11.21875 18.921875 -8.582031 19.058594 -6.148438 L 9.664062 -23.316406 L 2.871094 -23.316406 L 2.871094 0 L 8.175781 0 L 8.175781 -10.136719 C 8.175781 -11.828125 8.144531 -14.226562 7.972656 -16.691406 L 17.097656 0 Z M 24.160156 0 "/></g></g></g><g fill="#000000" fill-opacity="1"><g transform="translate(144.859458, 169.712018)"><g><path d="M 20.171875 -4.15625 L 8.175781 -4.15625 L 8.175781 -9.628906 L 19.058594 -9.628906 L 19.058594 -13.753906 L 8.175781 -13.753906 L 8.175781 -19.191406 L 19.835938 -19.191406 L 19.835938 -23.316406 L 2.871094 -23.316406 L 2.871094 0 L 20.171875 0 Z M 20.171875 -4.15625 "/></g></g></g><g fill="#000000" fill-opacity="1"><g transform="translate(166.011582, 169.712018)"><g/></g></g><g fill="#000000" fill-opacity="1"><g transform="translate(172.2964, 169.712018)"><g><path d="M 13.179688 -23.789062 C 6.757812 -23.789062 1.757812 -19.363281 1.757812 -11.523438 C 1.757812 -3.886719 6.488281 0.472656 12.875 0.472656 C 18.789062 0.472656 22.808594 -2.601562 23.347656 -7.875 L 23.382812 -8.210938 L 18.078125 -8.210938 L 18.011719 -7.875 C 17.46875 -5.101562 15.8125 -3.445312 13.078125 -3.445312 C 9.902344 -3.445312 7.332031 -5.980469 7.332031 -11.828125 C 7.332031 -16.996094 9.730469 -19.867188 13.109375 -19.867188 C 15.914062 -19.867188 17.570312 -18.414062 18.113281 -15.710938 L 18.179688 -15.375 L 23.484375 -15.375 L 23.449219 -15.710938 C 22.976562 -20.308594 19.632812 -23.789062 13.179688 -23.789062 Z M 13.179688 -23.789062 "/></g></g></g><g fill="#000000" fill-opacity="1"><g transform="translate(196.793654, 169.712018)"><g><path d="M 13.480469 -23.789062 C 6.25 -23.789062 1.757812 -19.058594 1.757812 -11.65625 C 1.757812 -4.292969 6.25 0.472656 13.480469 0.472656 C 20.679688 0.472656 25.171875 -4.292969 25.171875 -11.65625 C 25.171875 -19.058594 20.679688 -23.789062 13.480469 -23.789062 Z M 13.480469 -3.445312 C 9.597656 -3.445312 7.230469 -6.453125 7.230469 -11.65625 C 7.230469 -16.894531 9.597656 -19.867188 13.480469 -19.867188 C 17.335938 -19.867188 19.699219 -16.894531 19.699219 -11.65625 C 19.699219 -6.453125 17.335938 -3.445312 13.480469 -3.445312 Z M 13.480469 -3.445312 "/></g></g></g><g fill="#000000" fill-opacity="1"><g transform="translate(222.98038, 169.712018)"><g><path d="M 20.171875 -4.460938 L 8.175781 -4.460938 L 8.175781 -23.316406 L 2.871094 -23.316406 L 2.871094 0 L 20.171875 0 Z M 20.171875 -4.460938 "/></g></g></g><g fill="#000000" fill-opacity="1"><g transform="translate(243.760814, 169.712018)"><g><path d="M 20.171875 -4.460938 L 8.175781 -4.460938 L 8.175781 -23.316406 L 2.871094 -23.316406 L 2.871094 0 L 20.171875 0 Z M 20.171875 -4.460938 "/></g></g></g><g fill="#000000" fill-opacity="1"><g transform="translate(264.541248, 169.712018)"><g><path d="M 20.171875 -4.15625 L 8.175781 -4.15625 L 8.175781 -9.628906 L 19.058594 -9.628906 L 19.058594 -13.753906 L 8.175781 -13.753906 L 8.175781 -19.191406 L 19.835938 -19.191406 L 19.835938 -23.316406 L 2.871094 -23.316406 L 2.871094 0 L 20.171875 0 Z M 20.171875 -4.15625 "/></g></g></g><g fill="#000000" fill-opacity="1"><g transform="translate(285.693372, 169.712018)"><g><path d="M 13.179688 -23.789062 C 6.757812 -23.789062 1.757812 -19.363281 1.757812 -11.523438 C 1.757812 -3.886719 6.488281 0.472656 12.875 0.472656 C 18.789062 0.472656 22.808594 -2.601562 23.347656 -7.875 L 23.382812 -8.210938 L 18.078125 -8.210938 L 18.011719 -7.875 C 17.46875 -5.101562 15.8125 -3.445312 13.078125 -3.445312 C 9.902344 -3.445312 7.332031 -5.980469 7.332031 -11.828125 C 7.332031 -16.996094 9.730469 -19.867188 13.109375 -19.867188 C 15.914062 -19.867188 17.570312 -18.414062 18.113281 -15.710938 L 18.179688 -15.375 L 23.484375 -15.375 L 23.449219 -15.710938 C 22.976562 -20.308594 19.632812 -23.789062 13.179688 -23.789062 Z M 13.179688 -23.789062 "/></g></g></g><g fill="#000000" fill-opacity="1"><g transform="translate(310.190627, 169.712018)"><g><path d="M 21.457031 -19.191406 L 21.457031 -23.316406 L 0.640625 -23.316406 L 0.640625 -19.191406 L 8.414062 -19.191406 L 8.414062 0 L 13.683594 0 L 13.683594 -19.191406 Z M 21.457031 -19.191406 "/></g></g></g><g fill="#000000" fill-opacity="1"><g transform="translate(45.611654, 130.578669)"><g><path d="M 1.515625 -1.78125 L 1.171875 0 L 0.25 0 L 1.953125 -8.875 L 3.390625 -8.875 L 5.078125 0 L 4.09375 0 L 3.75 -1.78125 Z M 1.640625 -2.640625 L 3.609375 -2.640625 L 2.609375 -7.75 Z M 1.640625 -2.640625 "/></g></g></g><g fill="#000000" fill-opacity="1"><g transform="translate(52.225973, 130.578669)"><g><path d="M 2.453125 -8.875 C 3.148438 -8.875 3.65625 -8.679688 3.96875 -8.296875 C 4.28125 -7.910156 4.4375 -7.378906 4.4375 -6.703125 L 4.4375 -5.640625 C 4.4375 -4.929688 4.269531 -4.394531 3.9375 -4.03125 C 3.601562 -3.675781 3.082031 -3.5 2.375 -3.5 L 1.5 -3.5 L 1.5 0 L 0.5 0 L 0.5 -8.875 Z M 2.375 -4.390625 C 2.738281 -4.390625 3.007812 -4.476562 3.1875 -4.65625 C 3.363281 -4.832031 3.453125 -5.140625 3.453125 -5.578125 L 3.453125 -6.75 C 3.453125 -7.15625 3.375 -7.457031 3.21875 -7.65625 C 3.0625 -7.863281 2.804688 -7.96875 2.453125 -7.96875 L 1.5 -7.96875 L 1.5 -4.390625 Z M 2.375 -4.390625 "/></g></g></g><g fill="#000000" fill-opacity="1"><g transform="translate(58.232401, 130.578669)"><g><path d="M 2.453125 -8.875 C 3.148438 -8.875 3.65625 -8.679688 3.96875 -8.296875 C 4.28125 -7.910156 4.4375 -7.378906 4.4375 -6.703125 L 4.4375 -5.640625 C 4.4375 -4.929688 4.269531 -4.394531 3.9375 -4.03125 C 3.601562 -3.675781 3.082031 -3.5 2.375 -3.5 L 1.5 -3.5 L 1.5 0 L 0.5 0 L 0.5 -8.875 Z M 2.375 -4.390625 C 2.738281 -4.390625 3.007812 -4.476562 3.1875 -4.65625 C 3.363281 -4.832031 3.453125 -5.140625 3.453125 -5.578125 L 3.453125 -6.75 C 3.453125 -7.15625 3.375 -7.457031 3.21875 -7.65625 C 3.0625 -7.863281 2.804688 -7.96875 2.453125 -7.96875 L 1.5 -7.96875 L 1.5 -4.390625 Z M 2.375 -4.390625 "/></g></g></g><g fill="#000000" fill-opacity="1"><g transform="translate(64.23883, 130.578669)"><g><path d="M 2.375 -8.953125 C 3.050781 -8.953125 3.546875 -8.75 3.859375 -8.34375 C 4.179688 -7.945312 4.34375 -7.410156 4.34375 -6.734375 L 4.34375 -6.5 L 3.40625 -6.5 L 3.40625 -6.796875 C 3.40625 -7.203125 3.320312 -7.515625 3.15625 -7.734375 C 3 -7.953125 2.742188 -8.0625 2.390625 -8.0625 C 2.035156 -8.0625 1.773438 -7.953125 1.609375 -7.734375 C 1.453125 -7.515625 1.375 -7.207031 1.375 -6.8125 C 1.375 -6.476562 1.445312 -6.1875 1.59375 -5.9375 C 1.75 -5.695312 1.9375 -5.472656 2.15625 -5.265625 C 2.375 -5.054688 2.609375 -4.851562 2.859375 -4.65625 C 3.117188 -4.457031 3.359375 -4.238281 3.578125 -4 C 3.804688 -3.769531 3.992188 -3.503906 4.140625 -3.203125 C 4.285156 -2.898438 4.359375 -2.539062 4.359375 -2.125 C 4.359375 -1.445312 4.195312 -0.90625 3.875 -0.5 C 3.550781 -0.101562 3.046875 0.09375 2.359375 0.09375 C 1.671875 0.09375 1.164062 -0.101562 0.84375 -0.5 C 0.53125 -0.90625 0.375 -1.445312 0.375 -2.125 L 0.375 -2.640625 L 1.296875 -2.640625 L 1.296875 -2.078125 C 1.296875 -1.671875 1.378906 -1.359375 1.546875 -1.140625 C 1.710938 -0.921875 1.972656 -0.8125 2.328125 -0.8125 C 2.679688 -0.8125 2.941406 -0.921875 3.109375 -1.140625 C 3.285156 -1.359375 3.375 -1.671875 3.375 -2.078125 C 3.375 -2.410156 3.296875 -2.695312 3.140625 -2.9375 C 2.992188 -3.175781 2.8125 -3.398438 2.59375 -3.609375 C 2.375 -3.816406 2.140625 -4.019531 1.890625 -4.21875 C 1.640625 -4.414062 1.398438 -4.628906 1.171875 -4.859375 C 0.953125 -5.097656 0.769531 -5.367188 0.625 -5.671875 C 0.476562 -5.972656 0.40625 -6.328125 0.40625 -6.734375 C 0.40625 -7.421875 0.566406 -7.960938 0.890625 -8.359375 C 1.210938 -8.753906 1.707031 -8.953125 2.375 -8.953125 Z M 2.375 -8.953125 "/></g></g></g><g fill="#000000" fill-opacity="1"><g transform="translate(70.219916, 130.578669)"><g><path d="M 1.453125 -1.234375 L 1.453125 0 L 0.5 0 L 0.5 -1.234375 Z M 1.453125 -1.234375 "/></g></g></g><g fill="#000000" fill-opacity="1"><g transform="translate(73.451221, 130.578669)"><g><path d="M 3.53125 -4.734375 L 3.53125 -3.84375 L 1.5 -3.84375 L 1.5 0 L 0.5 0 L 0.5 -8.875 L 4.03125 -8.875 L 4.03125 -7.96875 L 1.5 -7.96875 L 1.5 -4.734375 Z M 3.53125 -4.734375 "/></g></g></g><g fill="#000000" fill-opacity="1"><g transform="translate(79.02681, 130.578669)"><g><path d="M 2.484375 -8.875 C 3.179688 -8.875 3.679688 -8.695312 3.984375 -8.34375 C 4.296875 -8 4.453125 -7.5 4.453125 -6.84375 L 4.453125 -6.125 C 4.453125 -5.632812 4.363281 -5.234375 4.1875 -4.921875 C 4.007812 -4.617188 3.734375 -4.410156 3.359375 -4.296875 C 3.765625 -4.179688 4.050781 -3.960938 4.21875 -3.640625 C 4.382812 -3.328125 4.46875 -2.929688 4.46875 -2.453125 L 4.46875 -1.0625 C 4.46875 -0.863281 4.476562 -0.675781 4.5 -0.5 C 4.519531 -0.320312 4.570312 -0.15625 4.65625 0 L 3.65625 0 C 3.59375 -0.125 3.546875 -0.257812 3.515625 -0.40625 C 3.492188 -0.5625 3.484375 -0.785156 3.484375 -1.078125 L 3.484375 -2.46875 C 3.484375 -2.96875 3.367188 -3.3125 3.140625 -3.5 C 2.921875 -3.6875 2.601562 -3.78125 2.1875 -3.78125 L 1.5 -3.78125 L 1.5 0 L 0.5 0 L 0.5 -8.875 Z M 2.234375 -4.6875 C 2.628906 -4.6875 2.9375 -4.769531 3.15625 -4.9375 C 3.375 -5.101562 3.484375 -5.425781 3.484375 -5.90625 L 3.484375 -6.75 C 3.484375 -7.15625 3.40625 -7.457031 3.25 -7.65625 C 3.09375 -7.863281 2.828125 -7.96875 2.453125 -7.96875 L 1.5 -7.96875 L 1.5 -4.6875 Z M 2.234375 -4.6875 "/></g></g></g><g fill="#000000" fill-opacity="1"><g transform="translate(45.611654, 193.682293)"><g><path d="M 5.6875 -5.171875 L 2.328125 0 L 1.96875 0 L 0.6875 -5.171875 L 1.09375 -5.171875 L 2.234375 -0.484375 L 5.265625 -5.171875 Z M 5.6875 -5.171875 "/></g></g></g><g fill="#000000" fill-opacity="1"><g transform="translate(51.721899, 193.682293)"><g><path d="M 0.703125 -1.84375 C 0.691406 -1.738281 0.6875 -1.660156 0.6875 -1.609375 C 0.6875 -1.179688 0.804688 -0.851562 1.046875 -0.625 C 1.296875 -0.40625 1.65625 -0.296875 2.125 -0.296875 C 2.394531 -0.296875 2.644531 -0.34375 2.875 -0.4375 C 3.101562 -0.53125 3.289062 -0.660156 3.4375 -0.828125 L 3.609375 -0.5625 C 3.441406 -0.375 3.222656 -0.226562 2.953125 -0.125 C 2.679688 -0.0195312 2.394531 0.03125 2.09375 0.03125 C 1.539062 0.03125 1.109375 -0.109375 0.796875 -0.390625 C 0.484375 -0.679688 0.328125 -1.082031 0.328125 -1.59375 C 0.328125 -2.019531 0.414062 -2.40625 0.59375 -2.75 C 0.78125 -3.101562 1.035156 -3.378906 1.359375 -3.578125 C 1.679688 -3.785156 2.039062 -3.890625 2.4375 -3.890625 C 2.9375 -3.890625 3.332031 -3.742188 3.625 -3.453125 C 3.925781 -3.171875 4.078125 -2.78125 4.078125 -2.28125 C 4.078125 -2.15625 4.0625 -2.007812 4.03125 -1.84375 Z M 2.4375 -3.5625 C 2.007812 -3.5625 1.644531 -3.429688 1.34375 -3.171875 C 1.039062 -2.910156 0.84375 -2.566406 0.75 -2.140625 L 3.71875 -2.140625 C 3.726562 -2.179688 3.734375 -2.242188 3.734375 -2.328125 C 3.734375 -2.710938 3.613281 -3.015625 3.375 -3.234375 C 3.132812 -3.453125 2.820312 -3.5625 2.4375 -3.5625 Z M 2.4375 -3.5625 "/></g></g></g><g fill="#000000" fill-opacity="1"><g transform="translate(57.174632, 193.682293)"><g><path d="M 2.96875 -3.890625 C 3.40625 -3.890625 3.742188 -3.78125 3.984375 -3.5625 C 4.222656 -3.34375 4.34375 -3.039062 4.34375 -2.65625 C 4.34375 -2.519531 4.328125 -2.378906 4.296875 -2.234375 L 3.84375 0 L 3.484375 0 L 3.921875 -2.234375 C 3.953125 -2.347656 3.96875 -2.46875 3.96875 -2.59375 C 3.96875 -2.90625 3.875 -3.144531 3.6875 -3.3125 C 3.5 -3.476562 3.226562 -3.5625 2.875 -3.5625 C 2.425781 -3.5625 2.054688 -3.4375 1.765625 -3.1875 C 1.472656 -2.9375 1.28125 -2.570312 1.1875 -2.09375 L 0.765625 0 L 0.390625 0 L 1.15625 -3.859375 L 1.515625 -3.859375 L 1.375 -3.125 C 1.550781 -3.382812 1.773438 -3.578125 2.046875 -3.703125 C 2.328125 -3.828125 2.632812 -3.890625 2.96875 -3.890625 Z M 2.96875 -3.890625 "/></g></g></g><g fill="#000000" fill-opacity="1"><g transform="translate(63.18145, 193.682293)"><g><path d="M 1.0625 -1.109375 C 1.039062 -1.015625 1.03125 -0.925781 1.03125 -0.84375 C 1.03125 -0.46875 1.226562 -0.28125 1.625 -0.28125 C 1.863281 -0.28125 2.070312 -0.351562 2.25 -0.5 L 2.359375 -0.234375 C 2.148438 -0.0546875 1.875 0.03125 1.53125 0.03125 C 1.257812 0.03125 1.046875 -0.0390625 0.890625 -0.1875 C 0.734375 -0.332031 0.65625 -0.535156 0.65625 -0.796875 C 0.65625 -0.898438 0.664062 -1 0.6875 -1.09375 L 1.1875 -3.546875 L 0.46875 -3.546875 L 0.53125 -3.859375 L 1.234375 -3.859375 L 1.40625 -4.703125 L 1.78125 -4.703125 L 1.609375 -3.859375 L 2.84375 -3.859375 L 2.78125 -3.546875 L 1.546875 -3.546875 Z M 1.0625 -1.109375 "/></g></g></g><g fill="#000000" fill-opacity="1"><g transform="translate(67.156635, 193.682293)"><g><path d="M 0.703125 -1.84375 C 0.691406 -1.738281 0.6875 -1.660156 0.6875 -1.609375 C 0.6875 -1.179688 0.804688 -0.851562 1.046875 -0.625 C 1.296875 -0.40625 1.65625 -0.296875 2.125 -0.296875 C 2.394531 -0.296875 2.644531 -0.34375 2.875 -0.4375 C 3.101562 -0.53125 3.289062 -0.660156 3.4375 -0.828125 L 3.609375 -0.5625 C 3.441406 -0.375 3.222656 -0.226562 2.953125 -0.125 C 2.679688 -0.0195312 2.394531 0.03125 2.09375 0.03125 C 1.539062 0.03125 1.109375 -0.109375 0.796875 -0.390625 C 0.484375 -0.679688 0.328125 -1.082031 0.328125 -1.59375 C 0.328125 -2.019531 0.414062 -2.40625 0.59375 -2.75 C 0.78125 -3.101562 1.035156 -3.378906 1.359375 -3.578125 C 1.679688 -3.785156 2.039062 -3.890625 2.4375 -3.890625 C 2.9375 -3.890625 3.332031 -3.742188 3.625 -3.453125 C 3.925781 -3.171875 4.078125 -2.78125 4.078125 -2.28125 C 4.078125 -2.15625 4.0625 -2.007812 4.03125 -1.84375 Z M 2.4375 -3.5625 C 2.007812 -3.5625 1.644531 -3.429688 1.34375 -3.171875 C 1.039062 -2.910156 0.84375 -2.566406 0.75 -2.140625 L 3.71875 -2.140625 C 3.726562 -2.179688 3.734375 -2.242188 3.734375 -2.328125 C 3.734375 -2.710938 3.613281 -3.015625 3.375 -3.234375 C 3.132812 -3.453125 2.820312 -3.5625 2.4375 -3.5625 Z M 2.4375 -3.5625 "/></g></g></g><g fill="#000000" fill-opacity="1"><g transform="translate(72.609369, 193.682293)"><g/></g></g><g fill="#000000" fill-opacity="1"><g transform="translate(75.542884, 193.682293)"><g><path d="M 4.921875 -5.484375 L 3.828125 0 L 3.46875 0 L 3.625 -0.75 C 3.4375 -0.507812 3.203125 -0.316406 2.921875 -0.171875 C 2.640625 -0.0351562 2.332031 0.03125 2 0.03125 C 1.488281 0.03125 1.082031 -0.109375 0.78125 -0.390625 C 0.476562 -0.679688 0.328125 -1.078125 0.328125 -1.578125 C 0.328125 -2.015625 0.421875 -2.40625 0.609375 -2.75 C 0.796875 -3.101562 1.054688 -3.378906 1.390625 -3.578125 C 1.722656 -3.785156 2.097656 -3.890625 2.515625 -3.890625 C 2.910156 -3.890625 3.238281 -3.800781 3.5 -3.625 C 3.757812 -3.457031 3.9375 -3.210938 4.03125 -2.890625 L 4.546875 -5.484375 Z M 2.0625 -0.296875 C 2.414062 -0.296875 2.726562 -0.378906 3 -0.546875 C 3.269531 -0.722656 3.484375 -0.957031 3.640625 -1.25 C 3.796875 -1.550781 3.875 -1.890625 3.875 -2.265625 C 3.875 -2.671875 3.753906 -2.988281 3.515625 -3.21875 C 3.273438 -3.445312 2.941406 -3.5625 2.515625 -3.5625 C 2.171875 -3.5625 1.859375 -3.472656 1.578125 -3.296875 C 1.304688 -3.128906 1.09375 -2.894531 0.9375 -2.59375 C 0.78125 -2.300781 0.703125 -1.96875 0.703125 -1.59375 C 0.703125 -1.1875 0.820312 -0.867188 1.0625 -0.640625 C 1.300781 -0.410156 1.632812 -0.296875 2.0625 -0.296875 Z M 2.0625 -0.296875 "/></g></g></g><g fill="#000000" fill-opacity="1"><g transform="translate(81.564474, 193.682293)"><g><path d="M 1.203125 -5.171875 L 1.53125 -5.171875 L 1.125 -3.265625 L 0.84375 -3.265625 Z M 1.203125 -5.171875 "/></g></g></g><g fill="#000000" fill-opacity="1"><g transform="translate(84.032557, 193.682293)"><g><path d="M 4.59375 -3.859375 L 3.828125 0 L 3.46875 0 L 3.625 -0.75 C 3.4375 -0.507812 3.203125 -0.316406 2.921875 -0.171875 C 2.640625 -0.0351562 2.332031 0.03125 2 0.03125 C 1.488281 0.03125 1.082031 -0.109375 0.78125 -0.390625 C 0.476562 -0.679688 0.328125 -1.078125 0.328125 -1.578125 C 0.328125 -2.015625 0.421875 -2.40625 0.609375 -2.75 C 0.796875 -3.101562 1.054688 -3.378906 1.390625 -3.578125 C 1.722656 -3.785156 2.097656 -3.890625 2.515625 -3.890625 C 2.910156 -3.890625 3.238281 -3.800781 3.5 -3.625 C 3.757812 -3.457031 3.9375 -3.210938 4.03125 -2.890625 L 4.234375 -3.859375 Z M 2.0625 -0.296875 C 2.414062 -0.296875 2.726562 -0.378906 3 -0.546875 C 3.269531 -0.722656 3.484375 -0.957031 3.640625 -1.25 C 3.796875 -1.550781 3.875 -1.890625 3.875 -2.265625 C 3.875 -2.671875 3.753906 -2.988281 3.515625 -3.21875 C 3.273438 -3.445312 2.941406 -3.5625 2.515625 -3.5625 C 2.171875 -3.5625 1.859375 -3.472656 1.578125 -3.296875 C 1.304688 -3.128906 1.09375 -2.894531 0.9375 -2.59375 C 0.78125 -2.300781 0.703125 -1.96875 0.703125 -1.59375 C 0.703125 -1.1875 0.820312 -0.867188 1.0625 -0.640625 C 1.300781 -0.410156 1.632812 -0.296875 2.0625 -0.296875 Z M 2.0625 -0.296875 "/></g></g></g><g fill="#000000" fill-opacity="1"><g transform="translate(90.054147, 193.682293)"><g><path d="M 3 -3.890625 C 3.5 -3.890625 3.898438 -3.742188 4.203125 -3.453125 C 4.503906 -3.160156 4.65625 -2.769531 4.65625 -2.28125 C 4.65625 -1.84375 4.5625 -1.445312 4.375 -1.09375 C 4.1875 -0.738281 3.925781 -0.460938 3.59375 -0.265625 C 3.257812 -0.0664062 2.882812 0.03125 2.46875 0.03125 C 2.070312 0.03125 1.742188 -0.0507812 1.484375 -0.21875 C 1.222656 -0.394531 1.046875 -0.640625 0.953125 -0.953125 L 0.46875 1.4375 L 0.109375 1.4375 L 1.15625 -3.859375 L 1.515625 -3.859375 L 1.375 -3.109375 C 1.5625 -3.359375 1.789062 -3.550781 2.0625 -3.6875 C 2.34375 -3.820312 2.65625 -3.890625 3 -3.890625 Z M 2.484375 -0.296875 C 2.828125 -0.296875 3.132812 -0.378906 3.40625 -0.546875 C 3.6875 -0.722656 3.898438 -0.957031 4.046875 -1.25 C 4.203125 -1.550781 4.28125 -1.890625 4.28125 -2.265625 C 4.28125 -2.671875 4.160156 -2.988281 3.921875 -3.21875 C 3.679688 -3.445312 3.347656 -3.5625 2.921875 -3.5625 C 2.578125 -3.5625 2.265625 -3.472656 1.984375 -3.296875 C 1.710938 -3.128906 1.5 -2.894531 1.34375 -2.59375 C 1.1875 -2.300781 1.109375 -1.96875 1.109375 -1.59375 C 1.109375 -1.1875 1.226562 -0.867188 1.46875 -0.640625 C 1.707031 -0.410156 2.046875 -0.296875 2.484375 -0.296875 Z M 2.484375 -0.296875 "/></g></g></g><g fill="#000000" fill-opacity="1"><g transform="translate(96.07574, 193.682293)"><g><path d="M 3 -3.890625 C 3.5 -3.890625 3.898438 -3.742188 4.203125 -3.453125 C 4.503906 -3.160156 4.65625 -2.769531 4.65625 -2.28125 C 4.65625 -1.84375 4.5625 -1.445312 4.375 -1.09375 C 4.1875 -0.738281 3.925781 -0.460938 3.59375 -0.265625 C 3.257812 -0.0664062 2.882812 0.03125 2.46875 0.03125 C 2.070312 0.03125 1.742188 -0.0507812 1.484375 -0.21875 C 1.222656 -0.394531 1.046875 -0.640625 0.953125 -0.953125 L 0.46875 1.4375 L 0.109375 1.4375 L 1.15625 -3.859375 L 1.515625 -3.859375 L 1.375 -3.109375 C 1.5625 -3.359375 1.789062 -3.550781 2.0625 -3.6875 C 2.34375 -3.820312 2.65625 -3.890625 3 -3.890625 Z M 2.484375 -0.296875 C 2.828125 -0.296875 3.132812 -0.378906 3.40625 -0.546875 C 3.6875 -0.722656 3.898438 -0.957031 4.046875 -1.25 C 4.203125 -1.550781 4.28125 -1.890625 4.28125 -2.265625 C 4.28125 -2.671875 4.160156 -2.988281 3.921875 -3.21875 C 3.679688 -3.445312 3.347656 -3.5625 2.921875 -3.5625 C 2.578125 -3.5625 2.265625 -3.472656 1.984375 -3.296875 C 1.710938 -3.128906 1.5 -2.894531 1.34375 -2.59375 C 1.1875 -2.300781 1.109375 -1.96875 1.109375 -1.59375 C 1.109375 -1.1875 1.226562 -0.867188 1.46875 -0.640625 C 1.707031 -0.410156 2.046875 -0.296875 2.484375 -0.296875 Z M 2.484375 -0.296875 "/></g></g></g><g fill="#000000" fill-opacity="1"><g transform="translate(102.097334, 193.682293)"><g><path d="M 4.59375 -3.859375 L 3.828125 0 L 3.46875 0 L 3.625 -0.75 C 3.4375 -0.507812 3.203125 -0.316406 2.921875 -0.171875 C 2.640625 -0.0351562 2.332031 0.03125 2 0.03125 C 1.488281 0.03125 1.082031 -0.109375 0.78125 -0.390625 C 0.476562 -0.679688 0.328125 -1.078125 0.328125 -1.578125 C 0.328125 -2.015625 0.421875 -2.40625 0.609375 -2.75 C 0.796875 -3.101562 1.054688 -3.378906 1.390625 -3.578125 C 1.722656 -3.785156 2.097656 -3.890625 2.515625 -3.890625 C 2.910156 -3.890625 3.238281 -3.800781 3.5 -3.625 C 3.757812 -3.457031 3.9375 -3.210938 4.03125 -2.890625 L 4.234375 -3.859375 Z M 2.0625 -0.296875 C 2.414062 -0.296875 2.726562 -0.378906 3 -0.546875 C 3.269531 -0.722656 3.484375 -0.957031 3.640625 -1.25 C 3.796875 -1.550781 3.875 -1.890625 3.875 -2.265625 C 3.875 -2.671875 3.753906 -2.988281 3.515625 -3.21875 C 3.273438 -3.445312 2.941406 -3.5625 2.515625 -3.5625 C 2.171875 -3.5625 1.859375 -3.472656 1.578125 -3.296875 C 1.304688 -3.128906 1.09375 -2.894531 0.9375 -2.59375 C 0.78125 -2.300781 0.703125 -1.96875 0.703125 -1.59375 C 0.703125 -1.1875 0.820312 -0.867188 1.0625 -0.640625 C 1.300781 -0.410156 1.632812 -0.296875 2.0625 -0.296875 Z M 2.0625 -0.296875 "/></g></g></g><g fill="#000000" fill-opacity="1"><g transform="translate(108.118927, 193.682293)"><g><path d="M 1.359375 -3.046875 C 1.535156 -3.328125 1.753906 -3.535156 2.015625 -3.671875 C 2.285156 -3.816406 2.613281 -3.890625 3 -3.890625 L 2.9375 -3.53125 L 2.8125 -3.53125 C 2.375 -3.53125 2.015625 -3.398438 1.734375 -3.140625 C 1.453125 -2.878906 1.257812 -2.492188 1.15625 -1.984375 L 0.765625 0 L 0.390625 0 L 1.15625 -3.859375 L 1.515625 -3.859375 Z M 1.359375 -3.046875 "/></g></g></g><g fill="#000000" fill-opacity="1"><g transform="translate(112.064566, 193.682293)"><g><path d="M 0.703125 -1.84375 C 0.691406 -1.738281 0.6875 -1.660156 0.6875 -1.609375 C 0.6875 -1.179688 0.804688 -0.851562 1.046875 -0.625 C 1.296875 -0.40625 1.65625 -0.296875 2.125 -0.296875 C 2.394531 -0.296875 2.644531 -0.34375 2.875 -0.4375 C 3.101562 -0.53125 3.289062 -0.660156 3.4375 -0.828125 L 3.609375 -0.5625 C 3.441406 -0.375 3.222656 -0.226562 2.953125 -0.125 C 2.679688 -0.0195312 2.394531 0.03125 2.09375 0.03125 C 1.539062 0.03125 1.109375 -0.109375 0.796875 -0.390625 C 0.484375 -0.679688 0.328125 -1.082031 0.328125 -1.59375 C 0.328125 -2.019531 0.414062 -2.40625 0.59375 -2.75 C 0.78125 -3.101562 1.035156 -3.378906 1.359375 -3.578125 C 1.679688 -3.785156 2.039062 -3.890625 2.4375 -3.890625 C 2.9375 -3.890625 3.332031 -3.742188 3.625 -3.453125 C 3.925781 -3.171875 4.078125 -2.78125 4.078125 -2.28125 C 4.078125 -2.15625 4.0625 -2.007812 4.03125 -1.84375 Z M 2.4375 -3.5625 C 2.007812 -3.5625 1.644531 -3.429688 1.34375 -3.171875 C 1.039062 -2.910156 0.84375 -2.566406 0.75 -2.140625 L 3.71875 -2.140625 C 3.726562 -2.179688 3.734375 -2.242188 3.734375 -2.328125 C 3.734375 -2.710938 3.613281 -3.015625 3.375 -3.234375 C 3.132812 -3.453125 2.820312 -3.5625 2.4375 -3.5625 Z M 2.4375 -3.5625 "/></g></g></g><g fill="#000000" fill-opacity="1"><g transform="translate(117.5173, 193.682293)"><g><path d="M 1.15625 -3.859375 L 1.53125 -3.859375 L 0.765625 0 L 0.390625 0 Z M 1.578125 -4.796875 C 1.492188 -4.796875 1.425781 -4.820312 1.375 -4.875 C 1.320312 -4.925781 1.296875 -4.988281 1.296875 -5.0625 C 1.296875 -5.15625 1.328125 -5.234375 1.390625 -5.296875 C 1.453125 -5.359375 1.53125 -5.390625 1.625 -5.390625 C 1.695312 -5.390625 1.757812 -5.363281 1.8125 -5.3125 C 1.875 -5.257812 1.90625 -5.195312 1.90625 -5.125 C 1.90625 -5.03125 1.875 -4.953125 1.8125 -4.890625 C 1.75 -4.828125 1.671875 -4.796875 1.578125 -4.796875 Z M 1.578125 -4.796875 "/></g></g></g><g fill="#000000" fill-opacity="1"><g transform="translate(120.480365, 193.682293)"><g><path d="M 1.484375 -5.484375 L 1.859375 -5.484375 L 0.765625 0 L 0.390625 0 Z M 1.484375 -5.484375 "/></g></g></g><g fill="#000000" fill-opacity="1"><g transform="translate(123.44343, 193.682293)"><g><path d="M 1.453125 0.03125 C 1.148438 0.03125 0.859375 -0.015625 0.578125 -0.109375 C 0.304688 -0.203125 0.0976562 -0.316406 -0.046875 -0.453125 L 0.140625 -0.75 C 0.285156 -0.613281 0.476562 -0.503906 0.71875 -0.421875 C 0.957031 -0.335938 1.210938 -0.296875 1.484375 -0.296875 C 1.878906 -0.296875 2.1875 -0.363281 2.40625 -0.5 C 2.625 -0.644531 2.734375 -0.84375 2.734375 -1.09375 C 2.734375 -1.238281 2.6875 -1.351562 2.59375 -1.4375 C 2.507812 -1.519531 2.398438 -1.582031 2.265625 -1.625 C 2.140625 -1.664062 1.96875 -1.710938 1.75 -1.765625 C 1.476562 -1.816406 1.257812 -1.867188 1.09375 -1.921875 C 0.925781 -1.984375 0.785156 -2.078125 0.671875 -2.203125 C 0.566406 -2.328125 0.515625 -2.5 0.515625 -2.71875 C 0.515625 -3.070312 0.660156 -3.351562 0.953125 -3.5625 C 1.242188 -3.78125 1.632812 -3.890625 2.125 -3.890625 C 2.363281 -3.890625 2.597656 -3.851562 2.828125 -3.78125 C 3.066406 -3.71875 3.253906 -3.628906 3.390625 -3.515625 L 3.21875 -3.21875 C 3.082031 -3.332031 2.910156 -3.414062 2.703125 -3.46875 C 2.503906 -3.53125 2.300781 -3.5625 2.09375 -3.5625 C 1.71875 -3.5625 1.421875 -3.488281 1.203125 -3.34375 C 0.984375 -3.195312 0.875 -3 0.875 -2.75 C 0.875 -2.601562 0.914062 -2.488281 1 -2.40625 C 1.09375 -2.320312 1.207031 -2.253906 1.34375 -2.203125 C 1.476562 -2.160156 1.660156 -2.113281 1.890625 -2.0625 C 2.148438 -2.007812 2.359375 -1.953125 2.515625 -1.890625 C 2.679688 -1.835938 2.820312 -1.75 2.9375 -1.625 C 3.050781 -1.507812 3.109375 -1.34375 3.109375 -1.125 C 3.109375 -0.769531 2.957031 -0.488281 2.65625 -0.28125 C 2.351562 -0.0703125 1.953125 0.03125 1.453125 0.03125 Z M 1.453125 0.03125 "/></g></g></g><g fill="#000000" fill-opacity="1"><g transform="translate(128.009639, 193.682293)"><g/></g></g><g fill="#000000" fill-opacity="1"><g transform="translate(130.943157, 193.682293)"><g><path d="M 0.703125 -1.84375 C 0.691406 -1.738281 0.6875 -1.660156 0.6875 -1.609375 C 0.6875 -1.179688 0.804688 -0.851562 1.046875 -0.625 C 1.296875 -0.40625 1.65625 -0.296875 2.125 -0.296875 C 2.394531 -0.296875 2.644531 -0.34375 2.875 -0.4375 C 3.101562 -0.53125 3.289062 -0.660156 3.4375 -0.828125 L 3.609375 -0.5625 C 3.441406 -0.375 3.222656 -0.226562 2.953125 -0.125 C 2.679688 -0.0195312 2.394531 0.03125 2.09375 0.03125 C 1.539062 0.03125 1.109375 -0.109375 0.796875 -0.390625 C 0.484375 -0.679688 0.328125 -1.082031 0.328125 -1.59375 C 0.328125 -2.019531 0.414062 -2.40625 0.59375 -2.75 C 0.78125 -3.101562 1.035156 -3.378906 1.359375 -3.578125 C 1.679688 -3.785156 2.039062 -3.890625 2.4375 -3.890625 C 2.9375 -3.890625 3.332031 -3.742188 3.625 -3.453125 C 3.925781 -3.171875 4.078125 -2.78125 4.078125 -2.28125 C 4.078125 -2.15625 4.0625 -2.007812 4.03125 -1.84375 Z M 2.4375 -3.5625 C 2.007812 -3.5625 1.644531 -3.429688 1.34375 -3.171875 C 1.039062 -2.910156 0.84375 -2.566406 0.75 -2.140625 L 3.71875 -2.140625 C 3.726562 -2.179688 3.734375 -2.242188 3.734375 -2.328125 C 3.734375 -2.710938 3.613281 -3.015625 3.375 -3.234375 C 3.132812 -3.453125 2.820312 -3.5625 2.4375 -3.5625 Z M 3.359375 -5.359375 L 3.90625 -5.359375 L 2.65625 -4.484375 L 2.234375 -4.484375 Z M 3.359375 -5.359375 "/></g></g></g><g fill="#000000" fill-opacity="1"><g transform="translate(136.395891, 193.682293)"><g><path d="M 1.484375 -5.484375 L 1.859375 -5.484375 L 0.765625 0 L 0.390625 0 Z M 1.484375 -5.484375 "/></g></g></g><g fill="#000000" fill-opacity="1"><g transform="translate(139.358956, 193.682293)"><g><path d="M 0.703125 -1.84375 C 0.691406 -1.738281 0.6875 -1.660156 0.6875 -1.609375 C 0.6875 -1.179688 0.804688 -0.851562 1.046875 -0.625 C 1.296875 -0.40625 1.65625 -0.296875 2.125 -0.296875 C 2.394531 -0.296875 2.644531 -0.34375 2.875 -0.4375 C 3.101562 -0.53125 3.289062 -0.660156 3.4375 -0.828125 L 3.609375 -0.5625 C 3.441406 -0.375 3.222656 -0.226562 2.953125 -0.125 C 2.679688 -0.0195312 2.394531 0.03125 2.09375 0.03125 C 1.539062 0.03125 1.109375 -0.109375 0.796875 -0.390625 C 0.484375 -0.679688 0.328125 -1.082031 0.328125 -1.59375 C 0.328125 -2.019531 0.414062 -2.40625 0.59375 -2.75 C 0.78125 -3.101562 1.035156 -3.378906 1.359375 -3.578125 C 1.679688 -3.785156 2.039062 -3.890625 2.4375 -3.890625 C 2.9375 -3.890625 3.332031 -3.742188 3.625 -3.453125 C 3.925781 -3.171875 4.078125 -2.78125 4.078125 -2.28125 C 4.078125 -2.15625 4.0625 -2.007812 4.03125 -1.84375 Z M 2.4375 -3.5625 C 2.007812 -3.5625 1.644531 -3.429688 1.34375 -3.171875 C 1.039062 -2.910156 0.84375 -2.566406 0.75 -2.140625 L 3.71875 -2.140625 C 3.726562 -2.179688 3.734375 -2.242188 3.734375 -2.328125 C 3.734375 -2.710938 3.613281 -3.015625 3.375 -3.234375 C 3.132812 -3.453125 2.820312 -3.5625 2.4375 -3.5625 Z M 2.4375 -3.5625 "/></g></g></g><g fill="#000000" fill-opacity="1"><g transform="translate(144.81169, 193.682293)"><g><path d="M 2.0625 0.03125 C 1.53125 0.03125 1.109375 -0.113281 0.796875 -0.40625 C 0.484375 -0.695312 0.328125 -1.085938 0.328125 -1.578125 C 0.328125 -2.015625 0.421875 -2.40625 0.609375 -2.75 C 0.804688 -3.101562 1.070312 -3.378906 1.40625 -3.578125 C 1.75 -3.785156 2.128906 -3.890625 2.546875 -3.890625 C 2.890625 -3.890625 3.1875 -3.828125 3.4375 -3.703125 C 3.6875 -3.585938 3.878906 -3.40625 4.015625 -3.15625 L 3.703125 -2.984375 C 3.472656 -3.367188 3.082031 -3.5625 2.53125 -3.5625 C 2.175781 -3.5625 1.859375 -3.472656 1.578125 -3.296875 C 1.304688 -3.128906 1.09375 -2.894531 0.9375 -2.59375 C 0.78125 -2.300781 0.703125 -1.96875 0.703125 -1.59375 C 0.703125 -1.1875 0.820312 -0.867188 1.0625 -0.640625 C 1.300781 -0.410156 1.644531 -0.296875 2.09375 -0.296875 C 2.351562 -0.296875 2.59375 -0.34375 2.8125 -0.4375 C 3.039062 -0.539062 3.226562 -0.679688 3.375 -0.859375 L 3.640625 -0.65625 C 3.472656 -0.4375 3.25 -0.265625 2.96875 -0.140625 C 2.6875 -0.0234375 2.382812 0.03125 2.0625 0.03125 Z M 2.0625 0.03125 "/></g></g></g><g fill="#000000" fill-opacity="1"><g transform="translate(149.946747, 193.682293)"><g><path d="M 1.0625 -1.109375 C 1.039062 -1.015625 1.03125 -0.925781 1.03125 -0.84375 C 1.03125 -0.46875 1.226562 -0.28125 1.625 -0.28125 C 1.863281 -0.28125 2.070312 -0.351562 2.25 -0.5 L 2.359375 -0.234375 C 2.148438 -0.0546875 1.875 0.03125 1.53125 0.03125 C 1.257812 0.03125 1.046875 -0.0390625 0.890625 -0.1875 C 0.734375 -0.332031 0.65625 -0.535156 0.65625 -0.796875 C 0.65625 -0.898438 0.664062 -1 0.6875 -1.09375 L 1.1875 -3.546875 L 0.46875 -3.546875 L 0.53125 -3.859375 L 1.234375 -3.859375 L 1.40625 -4.703125 L 1.78125 -4.703125 L 1.609375 -3.859375 L 2.84375 -3.859375 L 2.78125 -3.546875 L 1.546875 -3.546875 Z M 1.0625 -1.109375 "/></g></g></g><g fill="#000000" fill-opacity="1"><g transform="translate(153.921927, 193.682293)"><g><path d="M 1.359375 -3.046875 C 1.535156 -3.328125 1.753906 -3.535156 2.015625 -3.671875 C 2.285156 -3.816406 2.613281 -3.890625 3 -3.890625 L 2.9375 -3.53125 L 2.8125 -3.53125 C 2.375 -3.53125 2.015625 -3.398438 1.734375 -3.140625 C 1.453125 -2.878906 1.257812 -2.492188 1.15625 -1.984375 L 0.765625 0 L 0.390625 0 L 1.15625 -3.859375 L 1.515625 -3.859375 Z M 1.359375 -3.046875 "/></g></g></g><g fill="#000000" fill-opacity="1"><g transform="translate(157.867561, 193.682293)"><g><path d="M 2.046875 0.03125 C 1.515625 0.03125 1.09375 -0.113281 0.78125 -0.40625 C 0.476562 -0.695312 0.328125 -1.085938 0.328125 -1.578125 C 0.328125 -2.015625 0.421875 -2.40625 0.609375 -2.75 C 0.804688 -3.101562 1.070312 -3.378906 1.40625 -3.578125 C 1.738281 -3.785156 2.117188 -3.890625 2.546875 -3.890625 C 3.066406 -3.890625 3.476562 -3.742188 3.78125 -3.453125 C 4.09375 -3.160156 4.25 -2.769531 4.25 -2.28125 C 4.25 -1.84375 4.15625 -1.445312 3.96875 -1.09375 C 3.78125 -0.738281 3.515625 -0.460938 3.171875 -0.265625 C 2.835938 -0.0664062 2.460938 0.03125 2.046875 0.03125 Z M 2.0625 -0.296875 C 2.414062 -0.296875 2.726562 -0.378906 3 -0.546875 C 3.269531 -0.722656 3.484375 -0.957031 3.640625 -1.25 C 3.796875 -1.550781 3.875 -1.890625 3.875 -2.265625 C 3.875 -2.671875 3.753906 -2.988281 3.515625 -3.21875 C 3.273438 -3.445312 2.941406 -3.5625 2.515625 -3.5625 C 2.171875 -3.5625 1.859375 -3.472656 1.578125 -3.296875 C 1.304688 -3.128906 1.09375 -2.894531 0.9375 -2.59375 C 0.78125 -2.300781 0.703125 -1.96875 0.703125 -1.59375 C 0.703125 -1.1875 0.820312 -0.867188 1.0625 -0.640625 C 1.300781 -0.410156 1.632812 -0.296875 2.0625 -0.296875 Z M 2.0625 -0.296875 "/></g></g></g><g fill="#000000" fill-opacity="1"><g transform="translate(163.482822, 193.682293)"><g><path d="M 2.96875 -3.890625 C 3.40625 -3.890625 3.742188 -3.78125 3.984375 -3.5625 C 4.222656 -3.34375 4.34375 -3.039062 4.34375 -2.65625 C 4.34375 -2.519531 4.328125 -2.378906 4.296875 -2.234375 L 3.84375 0 L 3.484375 0 L 3.921875 -2.234375 C 3.953125 -2.347656 3.96875 -2.46875 3.96875 -2.59375 C 3.96875 -2.90625 3.875 -3.144531 3.6875 -3.3125 C 3.5 -3.476562 3.226562 -3.5625 2.875 -3.5625 C 2.425781 -3.5625 2.054688 -3.4375 1.765625 -3.1875 C 1.472656 -2.9375 1.28125 -2.570312 1.1875 -2.09375 L 0.765625 0 L 0.390625 0 L 1.15625 -3.859375 L 1.515625 -3.859375 L 1.375 -3.125 C 1.550781 -3.382812 1.773438 -3.578125 2.046875 -3.703125 C 2.328125 -3.828125 2.632812 -3.890625 2.96875 -3.890625 Z M 2.96875 -3.890625 "/></g></g></g><g fill="#000000" fill-opacity="1"><g transform="translate(169.489642, 193.682293)"><g><path d="M 1.15625 -3.859375 L 1.53125 -3.859375 L 0.765625 0 L 0.390625 0 Z M 1.578125 -4.796875 C 1.492188 -4.796875 1.425781 -4.820312 1.375 -4.875 C 1.320312 -4.925781 1.296875 -4.988281 1.296875 -5.0625 C 1.296875 -5.15625 1.328125 -5.234375 1.390625 -5.296875 C 1.453125 -5.359375 1.53125 -5.390625 1.625 -5.390625 C 1.695312 -5.390625 1.757812 -5.363281 1.8125 -5.3125 C 1.875 -5.257812 1.90625 -5.195312 1.90625 -5.125 C 1.90625 -5.03125 1.875 -4.953125 1.8125 -4.890625 C 1.75 -4.828125 1.671875 -4.796875 1.578125 -4.796875 Z M 1.578125 -4.796875 "/></g></g></g><g fill="#000000" fill-opacity="1"><g transform="translate(172.452701, 193.682293)"><g><path d="M 4.59375 -3.859375 L 3.546875 1.4375 L 3.171875 1.4375 L 3.609375 -0.734375 C 3.421875 -0.492188 3.1875 -0.304688 2.90625 -0.171875 C 2.632812 -0.0351562 2.332031 0.03125 2 0.03125 C 1.488281 0.03125 1.082031 -0.109375 0.78125 -0.390625 C 0.476562 -0.679688 0.328125 -1.078125 0.328125 -1.578125 C 0.328125 -2.015625 0.421875 -2.40625 0.609375 -2.75 C 0.796875 -3.101562 1.054688 -3.378906 1.390625 -3.578125 C 1.722656 -3.785156 2.097656 -3.890625 2.515625 -3.890625 C 2.921875 -3.890625 3.253906 -3.800781 3.515625 -3.625 C 3.773438 -3.445312 3.953125 -3.195312 4.046875 -2.875 L 4.25 -3.859375 Z M 2.0625 -0.296875 C 2.414062 -0.296875 2.726562 -0.378906 3 -0.546875 C 3.269531 -0.722656 3.484375 -0.957031 3.640625 -1.25 C 3.796875 -1.550781 3.875 -1.890625 3.875 -2.265625 C 3.875 -2.671875 3.753906 -2.988281 3.515625 -3.21875 C 3.273438 -3.445312 2.941406 -3.5625 2.515625 -3.5625 C 2.171875 -3.5625 1.859375 -3.472656 1.578125 -3.296875 C 1.304688 -3.128906 1.09375 -2.894531 0.9375 -2.59375 C 0.78125 -2.300781 0.703125 -1.96875 0.703125 -1.59375 C 0.703125 -1.1875 0.820312 -0.867188 1.0625 -0.640625 C 1.300781 -0.410156 1.632812 -0.296875 2.0625 -0.296875 Z M 2.0625 -0.296875 "/></g></g></g><g fill="#000000" fill-opacity="1"><g transform="translate(178.474288, 193.682293)"><g><path d="M 4.546875 -3.859375 L 3.78125 0 L 3.421875 0 L 3.5625 -0.734375 C 3.207031 -0.222656 2.679688 0.03125 1.984375 0.03125 C 1.554688 0.03125 1.222656 -0.078125 0.984375 -0.296875 C 0.753906 -0.515625 0.640625 -0.816406 0.640625 -1.203125 C 0.640625 -1.335938 0.65625 -1.476562 0.6875 -1.625 L 1.125 -3.859375 L 1.5 -3.859375 L 1.046875 -1.625 C 1.023438 -1.519531 1.015625 -1.394531 1.015625 -1.25 C 1.015625 -0.945312 1.101562 -0.710938 1.28125 -0.546875 C 1.457031 -0.378906 1.722656 -0.296875 2.078125 -0.296875 C 2.523438 -0.296875 2.894531 -0.421875 3.1875 -0.671875 C 3.476562 -0.921875 3.671875 -1.285156 3.765625 -1.765625 L 4.1875 -3.859375 Z M 4.546875 -3.859375 "/></g></g></g><g fill="#000000" fill-opacity="1"><g transform="translate(184.451549, 193.682293)"><g><path d="M 0.703125 -1.84375 C 0.691406 -1.738281 0.6875 -1.660156 0.6875 -1.609375 C 0.6875 -1.179688 0.804688 -0.851562 1.046875 -0.625 C 1.296875 -0.40625 1.65625 -0.296875 2.125 -0.296875 C 2.394531 -0.296875 2.644531 -0.34375 2.875 -0.4375 C 3.101562 -0.53125 3.289062 -0.660156 3.4375 -0.828125 L 3.609375 -0.5625 C 3.441406 -0.375 3.222656 -0.226562 2.953125 -0.125 C 2.679688 -0.0195312 2.394531 0.03125 2.09375 0.03125 C 1.539062 0.03125 1.109375 -0.109375 0.796875 -0.390625 C 0.484375 -0.679688 0.328125 -1.082031 0.328125 -1.59375 C 0.328125 -2.019531 0.414062 -2.40625 0.59375 -2.75 C 0.78125 -3.101562 1.035156 -3.378906 1.359375 -3.578125 C 1.679688 -3.785156 2.039062 -3.890625 2.4375 -3.890625 C 2.9375 -3.890625 3.332031 -3.742188 3.625 -3.453125 C 3.925781 -3.171875 4.078125 -2.78125 4.078125 -2.28125 C 4.078125 -2.15625 4.0625 -2.007812 4.03125 -1.84375 Z M 2.4375 -3.5625 C 2.007812 -3.5625 1.644531 -3.429688 1.34375 -3.171875 C 1.039062 -2.910156 0.84375 -2.566406 0.75 -2.140625 L 3.71875 -2.140625 C 3.726562 -2.179688 3.734375 -2.242188 3.734375 -2.328125 C 3.734375 -2.710938 3.613281 -3.015625 3.375 -3.234375 C 3.132812 -3.453125 2.820312 -3.5625 2.4375 -3.5625 Z M 2.4375 -3.5625 "/></g></g></g><g fill="#000000" fill-opacity="1"><g transform="translate(189.904283, 193.682293)"><g><path d="M 1.453125 0.03125 C 1.148438 0.03125 0.859375 -0.015625 0.578125 -0.109375 C 0.304688 -0.203125 0.0976562 -0.316406 -0.046875 -0.453125 L 0.140625 -0.75 C 0.285156 -0.613281 0.476562 -0.503906 0.71875 -0.421875 C 0.957031 -0.335938 1.210938 -0.296875 1.484375 -0.296875 C 1.878906 -0.296875 2.1875 -0.363281 2.40625 -0.5 C 2.625 -0.644531 2.734375 -0.84375 2.734375 -1.09375 C 2.734375 -1.238281 2.6875 -1.351562 2.59375 -1.4375 C 2.507812 -1.519531 2.398438 -1.582031 2.265625 -1.625 C 2.140625 -1.664062 1.96875 -1.710938 1.75 -1.765625 C 1.476562 -1.816406 1.257812 -1.867188 1.09375 -1.921875 C 0.925781 -1.984375 0.785156 -2.078125 0.671875 -2.203125 C 0.566406 -2.328125 0.515625 -2.5 0.515625 -2.71875 C 0.515625 -3.070312 0.660156 -3.351562 0.953125 -3.5625 C 1.242188 -3.78125 1.632812 -3.890625 2.125 -3.890625 C 2.363281 -3.890625 2.597656 -3.851562 2.828125 -3.78125 C 3.066406 -3.71875 3.253906 -3.628906 3.390625 -3.515625 L 3.21875 -3.21875 C 3.082031 -3.332031 2.910156 -3.414062 2.703125 -3.46875 C 2.503906 -3.53125 2.300781 -3.5625 2.09375 -3.5625 C 1.71875 -3.5625 1.421875 -3.488281 1.203125 -3.34375 C 0.984375 -3.195312 0.875 -3 0.875 -2.75 C 0.875 -2.601562 0.914062 -2.488281 1 -2.40625 C 1.09375 -2.320312 1.207031 -2.253906 1.34375 -2.203125 C 1.476562 -2.160156 1.660156 -2.113281 1.890625 -2.0625 C 2.148438 -2.007812 2.359375 -1.953125 2.515625 -1.890625 C 2.679688 -1.835938 2.820312 -1.75 2.9375 -1.625 C 3.050781 -1.507812 3.109375 -1.34375 3.109375 -1.125 C 3.109375 -0.769531 2.957031 -0.488281 2.65625 -0.28125 C 2.351562 -0.0703125 1.953125 0.03125 1.453125 0.03125 Z M 1.453125 0.03125 "/></g></g></g><g fill="#000000" fill-opacity="1"><g transform="translate(45.611654, 218.963029)"><g><path d="M 0.875 -1.046875 L 0.6875 0 L 0.140625 0 L 1.140625 -5.171875 L 1.96875 -5.171875 L 2.96875 0 L 2.390625 0 L 2.1875 -1.046875 Z M 0.953125 -1.53125 L 2.109375 -1.53125 L 1.515625 -4.515625 Z M 0.953125 -1.53125 "/></g></g></g><g fill="#000000" fill-opacity="1"><g transform="translate(49.466397, 218.963029)"><g><path d="M 1.421875 -5.171875 C 1.835938 -5.171875 2.132812 -5.054688 2.3125 -4.828125 C 2.5 -4.609375 2.59375 -4.300781 2.59375 -3.90625 L 2.59375 -3.28125 C 2.59375 -2.875 2.492188 -2.566406 2.296875 -2.359375 C 2.097656 -2.148438 1.789062 -2.046875 1.375 -2.046875 L 0.875 -2.046875 L 0.875 0 L 0.296875 0 L 0.296875 -5.171875 Z M 1.375 -2.5625 C 1.59375 -2.5625 1.753906 -2.613281 1.859375 -2.71875 C 1.960938 -2.820312 2.015625 -3 2.015625 -3.25 L 2.015625 -3.9375 C 2.015625 -4.175781 1.96875 -4.351562 1.875 -4.46875 C 1.789062 -4.59375 1.640625 -4.65625 1.421875 -4.65625 L 0.875 -4.65625 L 0.875 -2.5625 Z M 1.375 -2.5625 "/></g></g></g><g fill="#000000" fill-opacity="1"><g transform="translate(52.9686, 218.963029)"><g><path d="M 1.421875 -5.171875 C 1.835938 -5.171875 2.132812 -5.054688 2.3125 -4.828125 C 2.5 -4.609375 2.59375 -4.300781 2.59375 -3.90625 L 2.59375 -3.28125 C 2.59375 -2.875 2.492188 -2.566406 2.296875 -2.359375 C 2.097656 -2.148438 1.789062 -2.046875 1.375 -2.046875 L 0.875 -2.046875 L 0.875 0 L 0.296875 0 L 0.296875 -5.171875 Z M 1.375 -2.5625 C 1.59375 -2.5625 1.753906 -2.613281 1.859375 -2.71875 C 1.960938 -2.820312 2.015625 -3 2.015625 -3.25 L 2.015625 -3.9375 C 2.015625 -4.175781 1.96875 -4.351562 1.875 -4.46875 C 1.789062 -4.59375 1.640625 -4.65625 1.421875 -4.65625 L 0.875 -4.65625 L 0.875 -2.5625 Z M 1.375 -2.5625 "/></g></g></g><g fill="#000000" fill-opacity="1"><g transform="translate(56.470802, 218.963029)"><g><path d="M 1.375 -5.21875 C 1.769531 -5.21875 2.0625 -5.097656 2.25 -4.859375 C 2.4375 -4.628906 2.53125 -4.320312 2.53125 -3.9375 L 2.53125 -3.796875 L 1.984375 -3.796875 L 1.984375 -3.96875 C 1.984375 -4.195312 1.9375 -4.375 1.84375 -4.5 C 1.75 -4.632812 1.597656 -4.703125 1.390625 -4.703125 C 1.191406 -4.703125 1.046875 -4.632812 0.953125 -4.5 C 0.859375 -4.375 0.8125 -4.195312 0.8125 -3.96875 C 0.8125 -3.78125 0.851562 -3.613281 0.9375 -3.46875 C 1.019531 -3.320312 1.125 -3.1875 1.25 -3.0625 C 1.382812 -2.945312 1.523438 -2.832031 1.671875 -2.71875 C 1.828125 -2.601562 1.96875 -2.472656 2.09375 -2.328125 C 2.21875 -2.191406 2.320312 -2.035156 2.40625 -1.859375 C 2.5 -1.691406 2.546875 -1.484375 2.546875 -1.234375 C 2.546875 -0.847656 2.445312 -0.535156 2.25 -0.296875 C 2.0625 -0.0664062 1.769531 0.046875 1.375 0.046875 C 0.976562 0.046875 0.6875 -0.0664062 0.5 -0.296875 C 0.3125 -0.535156 0.21875 -0.847656 0.21875 -1.234375 L 0.21875 -1.53125 L 0.75 -1.53125 L 0.75 -1.21875 C 0.75 -0.976562 0.796875 -0.789062 0.890625 -0.65625 C 0.992188 -0.53125 1.148438 -0.46875 1.359375 -0.46875 C 1.566406 -0.46875 1.71875 -0.53125 1.8125 -0.65625 C 1.914062 -0.789062 1.96875 -0.976562 1.96875 -1.21875 C 1.96875 -1.40625 1.921875 -1.566406 1.828125 -1.703125 C 1.742188 -1.847656 1.640625 -1.976562 1.515625 -2.09375 C 1.390625 -2.21875 1.25 -2.335938 1.09375 -2.453125 C 0.945312 -2.566406 0.8125 -2.691406 0.6875 -2.828125 C 0.5625 -2.972656 0.453125 -3.128906 0.359375 -3.296875 C 0.273438 -3.472656 0.234375 -3.6875 0.234375 -3.9375 C 0.234375 -4.332031 0.328125 -4.644531 0.515625 -4.875 C 0.703125 -5.101562 0.988281 -5.21875 1.375 -5.21875 Z M 1.375 -5.21875 "/></g></g></g><g fill="#000000" fill-opacity="1"><g transform="translate(59.95823, 218.963029)"><g><path d="M 0.84375 -0.71875 L 0.84375 0 L 0.296875 0 L 0.296875 -0.71875 Z M 0.84375 -0.71875 "/></g></g></g><g fill="#000000" fill-opacity="1"><g transform="translate(61.842521, 218.963029)"><g><path d="M 2.0625 -2.765625 L 2.0625 -2.234375 L 0.875 -2.234375 L 0.875 0 L 0.296875 0 L 0.296875 -5.171875 L 2.34375 -5.171875 L 2.34375 -4.65625 L 0.875 -4.65625 L 0.875 -2.765625 Z M 2.0625 -2.765625 "/></g></g></g><g fill="#000000" fill-opacity="1"><g transform="translate(65.093542, 218.963029)"><g><path d="M 1.453125 -5.171875 C 1.859375 -5.171875 2.148438 -5.066406 2.328125 -4.859375 C 2.503906 -4.660156 2.59375 -4.367188 2.59375 -3.984375 L 2.59375 -3.5625 C 2.59375 -3.28125 2.539062 -3.050781 2.4375 -2.875 C 2.34375 -2.695312 2.179688 -2.570312 1.953125 -2.5 C 2.191406 -2.4375 2.359375 -2.3125 2.453125 -2.125 C 2.554688 -1.9375 2.609375 -1.703125 2.609375 -1.421875 L 2.609375 -0.625 C 2.609375 -0.507812 2.613281 -0.398438 2.625 -0.296875 C 2.632812 -0.191406 2.664062 -0.09375 2.71875 0 L 2.125 0 C 2.09375 -0.0703125 2.066406 -0.148438 2.046875 -0.234375 C 2.035156 -0.328125 2.03125 -0.457031 2.03125 -0.625 L 2.03125 -1.4375 C 2.03125 -1.726562 1.960938 -1.925781 1.828125 -2.03125 C 1.703125 -2.144531 1.519531 -2.203125 1.28125 -2.203125 L 0.875 -2.203125 L 0.875 0 L 0.296875 0 L 0.296875 -5.171875 Z M 1.296875 -2.734375 C 1.523438 -2.734375 1.703125 -2.78125 1.828125 -2.875 C 1.960938 -2.96875 2.03125 -3.15625 2.03125 -3.4375 L 2.03125 -3.9375 C 2.03125 -4.175781 1.984375 -4.351562 1.890625 -4.46875 C 1.804688 -4.59375 1.65625 -4.65625 1.4375 -4.65625 L 0.875 -4.65625 L 0.875 -2.734375 Z M 1.296875 -2.734375 "/></g></g></g></svg>